<?xml version="1.0" encoding="UTF-8"?>
<svg id="Layer_2" data-name="Layer 2" xmlns="http://www.w3.org/2000/svg" viewBox="0 0 85.19 55.99">
  <defs>
    <style>
      .cls-1 {
        fill: #ffca00;
      }

      .cls-2 {
        fill: #9bcc95;
      }

      .cls-3 {
        fill: #009f68;
      }
    </style>
  </defs>
  <g id="Laag_1" data-name="Laag 1">
    <path class="cls-1" d="M13.53,0h0c7.47,0,13.53,6.06,13.53,13.53h0c0,7.47-6.06,13.53-13.53,13.53h0C6.06,27.06,0,21,0,13.53H0C0,6.06,6.06,0,13.53,0Z"/>
    <path class="cls-2" d="M0,28.93h29.07c14.94,0,27.06,12.13,27.06,27.06h-29.07C12.12,55.99,0,43.86,0,28.93h0Z"/>
    <path class="cls-3" d="M56.12,0h29.07c0,14.94-12.13,27.06-27.06,27.06h-29.07C29.06,12.12,41.19,0,56.12,0Z"/>
  </g>
</svg>