<?xml version="1.0" encoding="UTF-8"?><svg id="Laag_1" xmlns="http://www.w3.org/2000/svg" viewBox="0 0 431.75 168.25"><defs><style>.cls-1{fill:#ffca00;}.cls-2{fill:#009f68;}.cls-3{fill:#9bcc95;}</style></defs><path class="cls-1" d="m162.13,96.86l-1.5,4.1h-2.95v-35.35h6.8v12.55c1.05-1.5,3.3-3.2,7.7-3.2,8.1,0,10.85,6.3,10.85,13.2s-3,13.2-11.05,13.2c-5.6,0-8.25-1.95-9.85-4.5Zm8-1.2c4.65,0,5.9-3.05,5.9-7.5s-1.25-7.45-6-7.45-5.6,3.2-5.6,7.45c0,4.5.85,7.5,5.7,7.5Z"/><path class="cls-1" d="m186.08,88.16c0-6.4,2.1-13.2,12.45-13.2,9.75,0,12.65,7.8,11.9,15.9h-17.35c.2,3.65,2.5,5.2,5.5,5.2s4.35-1.35,4.65-2.85h7.25c-.45,4.3-3.4,8.15-11.65,8.15-10.5,0-12.75-6.6-12.75-13.2Zm17.3-2.55c-.1-3.3-1.55-5.3-5.2-5.3-3.45,0-4.95,2-5.1,5.3h10.3Z"/><path class="cls-1" d="m214.73,65.61h6.85v35.35h-6.85v-35.35Z"/><path class="cls-1" d="m225.27,102.71h7.25c.2,2.1.65,3.8,6,3.8,4.5,0,5.5-1.3,5.5-2.3,0-1.35-.55-1.8-6.7-2.75-7.25-1.1-11.75-2-11.75-6,0-2.7,2.25-4,5.55-4.6-3.6-1.3-5-3.95-5-7.1,0-4.15,2.45-8.4,13.05-8.4h11.4v3l-4.15,1.5c1.9.9,3.15,2.8,3.15,5.8,0,7.25-7.35,7.55-11.8,7.8-3.7.2-5.15.2-5.15,1.2,0,.75.95.95,7.35,1.95,5.15.8,11.2,1.65,11.2,6.95,0,3.7-2.45,8.1-13.45,8.1-9.8,0-12.45-3.5-12.45-8.95Zm12.55-14.35c3.7,0,4.55-1.6,4.55-3.85s-.8-3.7-4.6-3.7-4.6,1.5-4.6,3.65.85,3.9,4.65,3.9Z"/><path class="cls-1" d="m252.28,93.36c0-4.85,3.2-6.95,10.7-7.6l6.8-.6c-.05-3.45-1.35-4.9-5.15-4.9s-4.7,1.65-4.7,4.15l-6.8.05c0-5.25,2.15-9.5,11.35-9.5,10.65,0,12.15,4.7,12.15,11.5v14.5h-2.9l-1.55-4.1c-1.5,2.35-4.5,4.5-9.7,4.5-5.7,0-10.2-2.5-10.2-8Zm11.85,2.65c4.65,0,5.6-2.9,5.65-6.25l-5.75.65c-3.55.4-4.6,1.25-4.6,2.6,0,1.75,1.35,3,4.7,3Z"/><path class="cls-1" d="m281.52,75.36h2.95l1.5,4.25c1.6-2.6,4.25-4.65,9.85-4.65,8.05,0,11.05,6.55,11.05,13.3s-2.75,13.1-10.85,13.1c-4.4,0-6.65-1.65-7.7-3.15v12.75h-6.8v-35.6Zm12.35,20.25c4.75,0,6-2.95,6-7.35s-1.25-7.7-5.9-7.7-5.7,3.2-5.7,7.7c0,4.25.7,7.35,5.6,7.35Z"/><path class="cls-1" d="m309.92,88.11c0-6.75,2.8-13.15,12.75-13.15s12.75,6.4,12.75,13.15-2.9,13.25-12.85,13.25-12.65-6.45-12.65-13.25Zm12.65,7.4c4.7,0,6.1-3.1,6.1-7.4,0-4.05-1.2-7.35-6-7.35s-6,3.15-6,7.35,1.3,7.4,5.9,7.4Z"/><path class="cls-1" d="m339.57,75.36h2.95l1.55,4.2c1.05-2.1,3.5-4.6,8.35-4.6,3.4,0,5.75,1.3,7.1,3.8.85-1.55,2.9-3.8,7.6-3.8,7,0,8.5,5.05,8.5,10.75v15.25h-6.95v-15.7c0-2.45-.55-4.5-3.75-4.5s-3.85,2-3.85,4.5v15.7h-6.95v-15.7c0-2.45-.55-4.5-3.75-4.5s-3.95,2.1-3.95,4.6v15.6h-6.85v-25.6Z"/><rect class="cls-1" x="56.13" y="56.13" width="27.06" height="27.06" rx="13.53" ry="13.53"/><path class="cls-3" d="m56.13,85.06h29.07c14.94,0,27.06,12.13,27.06,27.06h-29.07c-14.94,0-27.06-12.13-27.06-27.06h0Z"/><path class="cls-2" d="m112.25,56.13h29.07c0,14.94-12.13,27.06-27.06,27.06h-29.07c0-14.94,12.13-27.06,27.06-27.06Z"/></svg>
